<mxfile host="app.diagrams.net" modified="2022-10-11T17:09:17.210Z" agent="5.0 (Windows)" etag="m4KqupiREwAg3hw4DbFi" version="20.4.0" type="github">
  <diagram id="D2frXQ2mhSIWRKPz0Guj" name="Page-1">
    <mxGraphModel dx="2062" dy="1104" grid="1" gridSize="10" guides="1" tooltips="1" connect="1" arrows="1" fold="1" page="1" pageScale="1" pageWidth="850" pageHeight="1100" math="0" shadow="0">
      <root>
        <mxCell id="0" />
        <mxCell id="1" parent="0" />
        <mxCell id="zaMoeoB4MyWZzrcmvWwr-1" value="" style="whiteSpace=wrap;html=1;aspect=fixed;" vertex="1" parent="1">
          <mxGeometry x="230" y="230" width="460" height="460" as="geometry" />
        </mxCell>
        <mxCell id="zaMoeoB4MyWZzrcmvWwr-2" value="" style="whiteSpace=wrap;html=1;aspect=fixed;" vertex="1" parent="1">
          <mxGeometry x="230" y="230" width="80" height="80" as="geometry" />
        </mxCell>
      </root>
    </mxGraphModel>
  </diagram>
</mxfile>
